<svg width="34" height="33" viewBox="0 0 34 33" fill="none" xmlns="http://www.w3.org/2000/svg">
<path d="M23.2625 0C19.1978 0 15.8925 3.91137 15.8925 8.72125C15.8925 9.01028 15.9535 9.29303 15.9774 9.57578C10.9517 9.00714 6.50736 6.14195 3.48872 1.75933C3.34801 1.54884 3.13031 1.43574 2.90199 1.45459C2.67632 1.47344 2.47455 1.62738 2.36304 1.85986C1.72852 3.15109 1.36479 4.63709 1.36479 6.23305C1.36479 8.16518 1.94887 9.93393 2.85154 11.3854C2.67632 11.2943 2.48517 11.244 2.32056 11.134C2.11082 11.0021 1.85861 11.0084 1.65418 11.1529C1.44975 11.2974 1.32497 11.5582 1.32231 11.8378V11.9383C1.32231 14.9009 2.61791 17.4739 4.52945 19.051C4.50821 19.0479 4.48697 19.0573 4.46573 19.051C4.2321 19.0039 3.99581 19.1013 3.83917 19.3118C3.68253 19.5223 3.63209 19.8145 3.70112 20.0815C4.46042 22.8744 6.39851 25.0076 8.79855 25.7867C6.88701 27.1314 4.67016 27.9231 2.27808 27.9231C1.76037 27.9231 1.26391 27.8917 0.770092 27.8225C0.451503 27.7723 0.146187 27.9922 0.0399912 28.3503C-0.0688602 28.7085 0.0506109 29.1075 0.324067 29.3054C3.39049 31.6334 7.03038 33 10.9437 33C17.2863 33 22.2616 29.8646 25.5988 25.3846C28.9361 20.9046 30.675 15.0863 30.675 9.65118C30.675 9.42184 30.6591 9.19878 30.6538 8.97258C31.8989 7.84473 33.0114 6.52209 33.8822 4.97639C34.0547 4.67793 34.0361 4.27894 33.837 4.00248C33.6406 3.72601 33.3087 3.64118 33.0326 3.79513C32.6821 3.98048 32.2733 3.99933 31.9069 4.14699C32.3901 3.38357 32.8043 2.56045 33.0538 1.63366C33.1388 1.31636 33.0459 0.967631 32.8255 0.760282C32.6051 0.556074 32.2972 0.53094 32.0556 0.703732C30.8954 1.51742 29.6104 2.0892 28.2537 2.43793C26.9369 0.980198 25.2033 0 23.2625 0ZM23.2625 1.60853C24.9962 1.60853 26.5626 2.48505 27.659 3.87053C27.8237 4.07159 28.0652 4.15642 28.2962 4.09673C29.183 3.88938 30.0246 3.58463 30.8449 3.19193C30.3724 3.94593 29.7883 4.58997 29.1033 5.07692C28.7927 5.256 28.6467 5.68012 28.7608 6.06655C28.8723 6.44983 29.2122 6.67289 29.5493 6.58492C30.229 6.48753 30.8343 6.1608 31.4821 5.95659C30.9007 6.70116 30.2635 7.37348 29.5706 7.96725C29.3821 8.13062 29.2785 8.39452 29.2945 8.67098C29.3051 8.99772 29.3157 9.32131 29.3157 9.65118C29.3157 14.6778 27.6856 20.1349 24.5793 24.3039C21.4731 28.4729 16.912 31.3915 10.9437 31.3915C8.23305 31.3915 5.67372 30.6815 3.36129 29.4311C6.22859 29.1703 8.87289 27.9702 11.0074 25.9878C11.2304 25.7773 11.3181 25.4255 11.2278 25.105C11.1375 24.7846 10.888 24.5646 10.6039 24.5552C8.36314 24.5081 6.48612 22.9655 5.48522 20.7852C5.52239 20.7852 5.55424 20.7852 5.59141 20.7852C6.26311 20.7852 6.92683 20.6847 7.54543 20.4836C7.84278 20.38 8.04721 20.0532 8.03659 19.6856C8.02597 19.3181 7.80561 19.0039 7.50295 18.9254C5.08432 18.3473 3.27102 16.0162 2.85154 13.1196C3.53651 13.3992 4.23741 13.6191 4.99671 13.6474C5.30734 13.6694 5.58876 13.44 5.68433 13.0913C5.77991 12.7426 5.6631 12.3593 5.40026 12.1645C3.78607 10.8859 2.72411 8.70868 2.72411 6.23305C2.72411 5.31569 2.92588 4.47372 3.19137 3.66946C6.58966 8.08349 11.3473 11.0147 16.7208 11.3351C16.9332 11.3477 17.1403 11.244 17.2783 11.0524C17.4164 10.8576 17.4695 10.6 17.4217 10.3549C17.3182 9.8334 17.2518 9.28047 17.2518 8.72125C17.2518 4.78161 19.9333 1.60853 23.2625 1.60853Z" fill="white"/>
</svg>
