<svg width="46" height="41" viewBox="0 0 46 41" fill="none" xmlns="http://www.w3.org/2000/svg">
<path d="M8.27993 3.28C5.75038 3.28 3.67993 5.1254 3.67993 7.38V33.62C3.67993 35.8746 5.75038 37.72 8.27993 37.72H23.7654C23.8648 37.7346 23.9661 37.7346 24.0655 37.72H29.2854C29.3848 37.7346 29.4861 37.7346 29.5855 37.72H37.7199C40.2495 37.72 42.3199 35.8746 42.3199 33.62V7.38C42.3199 5.1254 40.2495 3.28 37.7199 3.28H8.27993ZM8.27993 4.92H37.7199C39.2549 4.92 40.4799 6.01184 40.4799 7.38V33.62C40.4799 34.9882 39.2549 36.08 37.7199 36.08H30.3599V24.6H33.8746L35.163 18.86H30.3599V17.22C30.3599 16.7629 30.4087 16.7271 30.5809 16.6274C30.7532 16.5277 31.2853 16.4 32.1999 16.4H34.9599V11.7827L34.4352 11.5601C34.4352 11.5601 32.322 10.66 29.4399 10.66C27.3699 10.66 25.6694 11.3951 24.5812 12.6075C23.493 13.8199 22.9999 15.4433 22.9999 17.22V18.86H20.2399V24.6H22.9999V36.08H8.27993C6.74493 36.08 5.51993 34.9882 5.51993 33.62V7.38C5.51993 6.01184 6.74493 4.92 8.27993 4.92ZM29.4399 12.3C31.3527 12.3 32.5563 12.6759 33.1199 12.875V14.76H32.1999C31.1412 14.76 30.2927 14.8381 29.5783 15.2517C28.8639 15.6653 28.5199 16.4504 28.5199 17.22V20.5H32.9169L32.3652 22.96H28.5199V36.08H24.8399V22.96H22.0799V20.5H24.8399V17.22C24.8399 15.7167 25.2669 14.4701 26.0187 13.6325C26.7705 12.7949 27.8299 12.3 29.4399 12.3Z" fill="white"/>
</svg>
